<mxfile host="app.diagrams.net" modified="2023-11-25T17:08:30.882Z" agent="Mozilla/5.0 (Windows NT 10.0; Win64; x64) AppleWebKit/537.36 (KHTML, like Gecko) Chrome/119.0.0.0 Safari/537.36" etag="ZvBzLRXVyk5kH7RH99BP" version="21.6.8" type="device">
  <diagram name="Página-1" id="RQ02QHly7urKivJd4r59">
    <mxGraphModel dx="2327" dy="1989" grid="1" gridSize="10" guides="1" tooltips="1" connect="1" arrows="1" fold="1" page="1" pageScale="1" pageWidth="827" pageHeight="1169" math="0" shadow="0">
      <root>
        <mxCell id="0" />
        <mxCell id="1" parent="0" />
        <mxCell id="vjCn4-SrqpU4wcJ7OJ6y-114" style="edgeStyle=orthogonalEdgeStyle;rounded=0;orthogonalLoop=1;jettySize=auto;html=1;" edge="1" parent="1" source="vjCn4-SrqpU4wcJ7OJ6y-1" target="vjCn4-SrqpU4wcJ7OJ6y-112">
          <mxGeometry relative="1" as="geometry">
            <Array as="points">
              <mxPoint x="220" y="905" />
            </Array>
          </mxGeometry>
        </mxCell>
        <mxCell id="vjCn4-SrqpU4wcJ7OJ6y-120" style="edgeStyle=orthogonalEdgeStyle;rounded=0;orthogonalLoop=1;jettySize=auto;html=1;entryX=0;entryY=0.5;entryDx=0;entryDy=0;" edge="1" parent="1" source="vjCn4-SrqpU4wcJ7OJ6y-1" target="vjCn4-SrqpU4wcJ7OJ6y-117">
          <mxGeometry relative="1" as="geometry" />
        </mxCell>
        <mxCell id="vjCn4-SrqpU4wcJ7OJ6y-143" style="edgeStyle=orthogonalEdgeStyle;rounded=0;orthogonalLoop=1;jettySize=auto;html=1;" edge="1" parent="1" source="vjCn4-SrqpU4wcJ7OJ6y-1" target="vjCn4-SrqpU4wcJ7OJ6y-43">
          <mxGeometry relative="1" as="geometry">
            <Array as="points">
              <mxPoint x="260" y="210" />
              <mxPoint x="150" y="210" />
              <mxPoint x="150" y="80" />
            </Array>
          </mxGeometry>
        </mxCell>
        <mxCell id="vjCn4-SrqpU4wcJ7OJ6y-144" style="edgeStyle=orthogonalEdgeStyle;rounded=0;orthogonalLoop=1;jettySize=auto;html=1;" edge="1" parent="1" source="vjCn4-SrqpU4wcJ7OJ6y-1" target="vjCn4-SrqpU4wcJ7OJ6y-33">
          <mxGeometry relative="1" as="geometry">
            <Array as="points">
              <mxPoint x="80" y="-40" />
            </Array>
          </mxGeometry>
        </mxCell>
        <mxCell id="vjCn4-SrqpU4wcJ7OJ6y-1" value="Usuario" style="swimlane;fontStyle=1;align=center;verticalAlign=top;childLayout=stackLayout;horizontal=1;startSize=26;horizontalStack=0;resizeParent=1;resizeParentMax=0;resizeLast=0;collapsible=1;marginBottom=0;whiteSpace=wrap;html=1;" vertex="1" parent="1">
          <mxGeometry x="30" y="240" width="460" height="320" as="geometry" />
        </mxCell>
        <mxCell id="vjCn4-SrqpU4wcJ7OJ6y-5" value="Nome:string" style="text;strokeColor=none;fillColor=none;align=left;verticalAlign=top;spacingLeft=4;spacingRight=4;overflow=hidden;rotatable=0;points=[[0,0.5],[1,0.5]];portConstraint=eastwest;whiteSpace=wrap;html=1;" vertex="1" parent="vjCn4-SrqpU4wcJ7OJ6y-1">
          <mxGeometry y="26" width="460" height="26" as="geometry" />
        </mxCell>
        <mxCell id="vjCn4-SrqpU4wcJ7OJ6y-30" value="DadosPagamento:DadosPagamento" style="text;strokeColor=none;fillColor=none;align=left;verticalAlign=top;spacingLeft=4;spacingRight=4;overflow=hidden;rotatable=0;points=[[0,0.5],[1,0.5]];portConstraint=eastwest;whiteSpace=wrap;html=1;" vertex="1" parent="vjCn4-SrqpU4wcJ7OJ6y-1">
          <mxGeometry y="52" width="460" height="26" as="geometry" />
        </mxCell>
        <mxCell id="vjCn4-SrqpU4wcJ7OJ6y-58" value="Senha:string" style="text;strokeColor=none;fillColor=none;align=left;verticalAlign=top;spacingLeft=4;spacingRight=4;overflow=hidden;rotatable=0;points=[[0,0.5],[1,0.5]];portConstraint=eastwest;whiteSpace=wrap;html=1;" vertex="1" parent="vjCn4-SrqpU4wcJ7OJ6y-1">
          <mxGeometry y="78" width="460" height="26" as="geometry" />
        </mxCell>
        <mxCell id="vjCn4-SrqpU4wcJ7OJ6y-56" value="E-mail:string" style="text;strokeColor=none;fillColor=none;align=left;verticalAlign=top;spacingLeft=4;spacingRight=4;overflow=hidden;rotatable=0;points=[[0,0.5],[1,0.5]];portConstraint=eastwest;whiteSpace=wrap;html=1;" vertex="1" parent="vjCn4-SrqpU4wcJ7OJ6y-1">
          <mxGeometry y="104" width="460" height="26" as="geometry" />
        </mxCell>
        <mxCell id="vjCn4-SrqpU4wcJ7OJ6y-106" value="Telefone:int" style="text;strokeColor=none;fillColor=none;align=left;verticalAlign=top;spacingLeft=4;spacingRight=4;overflow=hidden;rotatable=0;points=[[0,0.5],[1,0.5]];portConstraint=eastwest;whiteSpace=wrap;html=1;" vertex="1" parent="vjCn4-SrqpU4wcJ7OJ6y-1">
          <mxGeometry y="130" width="460" height="26" as="geometry" />
        </mxCell>
        <mxCell id="vjCn4-SrqpU4wcJ7OJ6y-21" value="Plano:Plano" style="text;strokeColor=none;fillColor=none;align=left;verticalAlign=top;spacingLeft=4;spacingRight=4;overflow=hidden;rotatable=0;points=[[0,0.5],[1,0.5]];portConstraint=eastwest;whiteSpace=wrap;html=1;" vertex="1" parent="vjCn4-SrqpU4wcJ7OJ6y-1">
          <mxGeometry y="156" width="460" height="26" as="geometry" />
        </mxCell>
        <mxCell id="vjCn4-SrqpU4wcJ7OJ6y-3" value="" style="line;strokeWidth=1;fillColor=none;align=left;verticalAlign=middle;spacingTop=-1;spacingLeft=3;spacingRight=3;rotatable=0;labelPosition=right;points=[];portConstraint=eastwest;strokeColor=inherit;" vertex="1" parent="vjCn4-SrqpU4wcJ7OJ6y-1">
          <mxGeometry y="182" width="460" height="8" as="geometry" />
        </mxCell>
        <mxCell id="vjCn4-SrqpU4wcJ7OJ6y-59" value="+ ValidarEmail(): Boolen" style="text;strokeColor=none;fillColor=none;align=left;verticalAlign=top;spacingLeft=4;spacingRight=4;overflow=hidden;rotatable=0;points=[[0,0.5],[1,0.5]];portConstraint=eastwest;whiteSpace=wrap;html=1;" vertex="1" parent="vjCn4-SrqpU4wcJ7OJ6y-1">
          <mxGeometry y="190" width="460" height="26" as="geometry" />
        </mxCell>
        <mxCell id="vjCn4-SrqpU4wcJ7OJ6y-4" value="+ Registrar(UsuárioDTO): void" style="text;strokeColor=none;fillColor=none;align=left;verticalAlign=top;spacingLeft=4;spacingRight=4;overflow=hidden;rotatable=0;points=[[0,0.5],[1,0.5]];portConstraint=eastwest;whiteSpace=wrap;html=1;" vertex="1" parent="vjCn4-SrqpU4wcJ7OJ6y-1">
          <mxGeometry y="216" width="460" height="26" as="geometry" />
        </mxCell>
        <mxCell id="vjCn4-SrqpU4wcJ7OJ6y-66" value="+ListarRelatórioTransacional(De,DataAte:Date):Lista&amp;lt;Transacao&amp;gt;" style="text;strokeColor=none;fillColor=none;align=left;verticalAlign=top;spacingLeft=4;spacingRight=4;overflow=hidden;rotatable=0;points=[[0,0.5],[1,0.5]];portConstraint=eastwest;whiteSpace=wrap;html=1;" vertex="1" parent="vjCn4-SrqpU4wcJ7OJ6y-1">
          <mxGeometry y="242" width="460" height="26" as="geometry" />
        </mxCell>
        <mxCell id="vjCn4-SrqpU4wcJ7OJ6y-125" value="+ListarMusicasFavoritas():PlayList" style="text;strokeColor=none;fillColor=none;align=left;verticalAlign=top;spacingLeft=4;spacingRight=4;overflow=hidden;rotatable=0;points=[[0,0.5],[1,0.5]];portConstraint=eastwest;whiteSpace=wrap;html=1;" vertex="1" parent="vjCn4-SrqpU4wcJ7OJ6y-1">
          <mxGeometry y="268" width="460" height="26" as="geometry" />
        </mxCell>
        <mxCell id="vjCn4-SrqpU4wcJ7OJ6y-149" value="+ListarPlayLists():Lista&amp;lt;PlayList&amp;gt;" style="text;strokeColor=none;fillColor=none;align=left;verticalAlign=top;spacingLeft=4;spacingRight=4;overflow=hidden;rotatable=0;points=[[0,0.5],[1,0.5]];portConstraint=eastwest;whiteSpace=wrap;html=1;" vertex="1" parent="vjCn4-SrqpU4wcJ7OJ6y-1">
          <mxGeometry y="294" width="460" height="26" as="geometry" />
        </mxCell>
        <mxCell id="vjCn4-SrqpU4wcJ7OJ6y-53" style="edgeStyle=orthogonalEdgeStyle;rounded=0;orthogonalLoop=1;jettySize=auto;html=1;" edge="1" parent="1" source="vjCn4-SrqpU4wcJ7OJ6y-16" target="vjCn4-SrqpU4wcJ7OJ6y-2">
          <mxGeometry relative="1" as="geometry" />
        </mxCell>
        <mxCell id="vjCn4-SrqpU4wcJ7OJ6y-16" value="Endereço" style="swimlane;fontStyle=0;childLayout=stackLayout;horizontal=1;startSize=26;fillColor=none;horizontalStack=0;resizeParent=1;resizeParentMax=0;resizeLast=0;collapsible=1;marginBottom=0;whiteSpace=wrap;html=1;" vertex="1" parent="1">
          <mxGeometry x="770" y="219" width="230" height="216" as="geometry" />
        </mxCell>
        <mxCell id="vjCn4-SrqpU4wcJ7OJ6y-11" value="CEP: int" style="text;strokeColor=none;fillColor=none;align=left;verticalAlign=top;spacingLeft=4;spacingRight=4;overflow=hidden;rotatable=0;points=[[0,0.5],[1,0.5]];portConstraint=eastwest;whiteSpace=wrap;html=1;" vertex="1" parent="vjCn4-SrqpU4wcJ7OJ6y-16">
          <mxGeometry y="26" width="230" height="26" as="geometry" />
        </mxCell>
        <mxCell id="vjCn4-SrqpU4wcJ7OJ6y-15" value="Estado:string" style="text;strokeColor=none;fillColor=none;align=left;verticalAlign=top;spacingLeft=4;spacingRight=4;overflow=hidden;rotatable=0;points=[[0,0.5],[1,0.5]];portConstraint=eastwest;whiteSpace=wrap;html=1;" vertex="1" parent="vjCn4-SrqpU4wcJ7OJ6y-16">
          <mxGeometry y="52" width="230" height="26" as="geometry" />
        </mxCell>
        <mxCell id="vjCn4-SrqpU4wcJ7OJ6y-14" value="Cidade:string" style="text;strokeColor=none;fillColor=none;align=left;verticalAlign=top;spacingLeft=4;spacingRight=4;overflow=hidden;rotatable=0;points=[[0,0.5],[1,0.5]];portConstraint=eastwest;whiteSpace=wrap;html=1;" vertex="1" parent="vjCn4-SrqpU4wcJ7OJ6y-16">
          <mxGeometry y="78" width="230" height="26" as="geometry" />
        </mxCell>
        <mxCell id="vjCn4-SrqpU4wcJ7OJ6y-10" value="Rua: string" style="text;strokeColor=none;fillColor=none;align=left;verticalAlign=top;spacingLeft=4;spacingRight=4;overflow=hidden;rotatable=0;points=[[0,0.5],[1,0.5]];portConstraint=eastwest;whiteSpace=wrap;html=1;" vertex="1" parent="vjCn4-SrqpU4wcJ7OJ6y-16">
          <mxGeometry y="104" width="230" height="26" as="geometry" />
        </mxCell>
        <mxCell id="vjCn4-SrqpU4wcJ7OJ6y-12" value="Numero: string" style="text;strokeColor=none;fillColor=none;align=left;verticalAlign=top;spacingLeft=4;spacingRight=4;overflow=hidden;rotatable=0;points=[[0,0.5],[1,0.5]];portConstraint=eastwest;whiteSpace=wrap;html=1;" vertex="1" parent="vjCn4-SrqpU4wcJ7OJ6y-16">
          <mxGeometry y="130" width="230" height="26" as="geometry" />
        </mxCell>
        <mxCell id="vjCn4-SrqpU4wcJ7OJ6y-13" value="Complemento: string" style="text;strokeColor=none;fillColor=none;align=left;verticalAlign=top;spacingLeft=4;spacingRight=4;overflow=hidden;rotatable=0;points=[[0,0.5],[1,0.5]];portConstraint=eastwest;whiteSpace=wrap;html=1;" vertex="1" parent="vjCn4-SrqpU4wcJ7OJ6y-16">
          <mxGeometry y="156" width="230" height="26" as="geometry" />
        </mxCell>
        <mxCell id="vjCn4-SrqpU4wcJ7OJ6y-69" value="" style="line;strokeWidth=1;fillColor=none;align=left;verticalAlign=middle;spacingTop=-1;spacingLeft=3;spacingRight=3;rotatable=0;labelPosition=right;points=[];portConstraint=eastwest;strokeColor=inherit;" vertex="1" parent="vjCn4-SrqpU4wcJ7OJ6y-16">
          <mxGeometry y="182" width="230" height="8" as="geometry" />
        </mxCell>
        <mxCell id="vjCn4-SrqpU4wcJ7OJ6y-70" value="+ Registrar(EnderecoDTO): void" style="text;strokeColor=none;fillColor=none;align=left;verticalAlign=top;spacingLeft=4;spacingRight=4;overflow=hidden;rotatable=0;points=[[0,0.5],[1,0.5]];portConstraint=eastwest;whiteSpace=wrap;html=1;" vertex="1" parent="vjCn4-SrqpU4wcJ7OJ6y-16">
          <mxGeometry y="190" width="230" height="26" as="geometry" />
        </mxCell>
        <mxCell id="vjCn4-SrqpU4wcJ7OJ6y-55" style="edgeStyle=orthogonalEdgeStyle;rounded=0;orthogonalLoop=1;jettySize=auto;html=1;" edge="1" parent="1" source="vjCn4-SrqpU4wcJ7OJ6y-22" target="vjCn4-SrqpU4wcJ7OJ6y-30">
          <mxGeometry relative="1" as="geometry" />
        </mxCell>
        <mxCell id="vjCn4-SrqpU4wcJ7OJ6y-22" value="DadosPagamento" style="swimlane;fontStyle=1;align=center;verticalAlign=top;childLayout=stackLayout;horizontal=1;startSize=26;horizontalStack=0;resizeParent=1;resizeParentMax=0;resizeLast=0;collapsible=1;marginBottom=0;whiteSpace=wrap;html=1;" vertex="1" parent="1">
          <mxGeometry x="540" y="184" width="180" height="242" as="geometry" />
        </mxCell>
        <mxCell id="vjCn4-SrqpU4wcJ7OJ6y-23" value="Numero do cartão:string" style="text;strokeColor=none;fillColor=none;align=left;verticalAlign=top;spacingLeft=4;spacingRight=4;overflow=hidden;rotatable=0;points=[[0,0.5],[1,0.5]];portConstraint=eastwest;whiteSpace=wrap;html=1;" vertex="1" parent="vjCn4-SrqpU4wcJ7OJ6y-22">
          <mxGeometry y="26" width="180" height="26" as="geometry" />
        </mxCell>
        <mxCell id="vjCn4-SrqpU4wcJ7OJ6y-36" value="CPF:string" style="text;strokeColor=none;fillColor=none;align=left;verticalAlign=top;spacingLeft=4;spacingRight=4;overflow=hidden;rotatable=0;points=[[0,0.5],[1,0.5]];portConstraint=eastwest;whiteSpace=wrap;html=1;" vertex="1" parent="vjCn4-SrqpU4wcJ7OJ6y-22">
          <mxGeometry y="52" width="180" height="26" as="geometry" />
        </mxCell>
        <mxCell id="vjCn4-SrqpU4wcJ7OJ6y-26" value="MesVencimento:int" style="text;strokeColor=none;fillColor=none;align=left;verticalAlign=top;spacingLeft=4;spacingRight=4;overflow=hidden;rotatable=0;points=[[0,0.5],[1,0.5]];portConstraint=eastwest;whiteSpace=wrap;html=1;" vertex="1" parent="vjCn4-SrqpU4wcJ7OJ6y-22">
          <mxGeometry y="78" width="180" height="26" as="geometry" />
        </mxCell>
        <mxCell id="vjCn4-SrqpU4wcJ7OJ6y-27" value="AnoVencimento:int" style="text;strokeColor=none;fillColor=none;align=left;verticalAlign=top;spacingLeft=4;spacingRight=4;overflow=hidden;rotatable=0;points=[[0,0.5],[1,0.5]];portConstraint=eastwest;whiteSpace=wrap;html=1;" vertex="1" parent="vjCn4-SrqpU4wcJ7OJ6y-22">
          <mxGeometry y="104" width="180" height="26" as="geometry" />
        </mxCell>
        <mxCell id="vjCn4-SrqpU4wcJ7OJ6y-2" value="EndereçoCobrança:Endereço" style="text;strokeColor=none;fillColor=none;align=left;verticalAlign=top;spacingLeft=4;spacingRight=4;overflow=hidden;rotatable=0;points=[[0,0.5],[1,0.5]];portConstraint=eastwest;whiteSpace=wrap;html=1;" vertex="1" parent="vjCn4-SrqpU4wcJ7OJ6y-22">
          <mxGeometry y="130" width="180" height="26" as="geometry" />
        </mxCell>
        <mxCell id="vjCn4-SrqpU4wcJ7OJ6y-28" value="CVV:int" style="text;strokeColor=none;fillColor=none;align=left;verticalAlign=top;spacingLeft=4;spacingRight=4;overflow=hidden;rotatable=0;points=[[0,0.5],[1,0.5]];portConstraint=eastwest;whiteSpace=wrap;html=1;" vertex="1" parent="vjCn4-SrqpU4wcJ7OJ6y-22">
          <mxGeometry y="156" width="180" height="26" as="geometry" />
        </mxCell>
        <mxCell id="vjCn4-SrqpU4wcJ7OJ6y-68" value="" style="line;strokeWidth=1;fillColor=none;align=left;verticalAlign=middle;spacingTop=-1;spacingLeft=3;spacingRight=3;rotatable=0;labelPosition=right;points=[];portConstraint=eastwest;strokeColor=inherit;" vertex="1" parent="vjCn4-SrqpU4wcJ7OJ6y-22">
          <mxGeometry y="182" width="180" height="8" as="geometry" />
        </mxCell>
        <mxCell id="vjCn4-SrqpU4wcJ7OJ6y-39" value="+ VerificarLimite(): Boolen" style="text;strokeColor=none;fillColor=none;align=left;verticalAlign=top;spacingLeft=4;spacingRight=4;overflow=hidden;rotatable=0;points=[[0,0.5],[1,0.5]];portConstraint=eastwest;whiteSpace=wrap;html=1;" vertex="1" parent="vjCn4-SrqpU4wcJ7OJ6y-22">
          <mxGeometry y="190" width="180" height="26" as="geometry" />
        </mxCell>
        <mxCell id="vjCn4-SrqpU4wcJ7OJ6y-40" value="+ CartaoAtivo(): Boolen" style="text;strokeColor=none;fillColor=none;align=left;verticalAlign=top;spacingLeft=4;spacingRight=4;overflow=hidden;rotatable=0;points=[[0,0.5],[1,0.5]];portConstraint=eastwest;whiteSpace=wrap;html=1;" vertex="1" parent="vjCn4-SrqpU4wcJ7OJ6y-22">
          <mxGeometry y="216" width="180" height="26" as="geometry" />
        </mxCell>
        <mxCell id="vjCn4-SrqpU4wcJ7OJ6y-32" value="Transação" style="swimlane;fontStyle=0;childLayout=stackLayout;horizontal=1;startSize=26;fillColor=none;horizontalStack=0;resizeParent=1;resizeParentMax=0;resizeLast=0;collapsible=1;marginBottom=0;whiteSpace=wrap;html=1;" vertex="1" parent="1">
          <mxGeometry x="540" y="-90" width="250" height="222" as="geometry" />
        </mxCell>
        <mxCell id="vjCn4-SrqpU4wcJ7OJ6y-33" value="Usuário:Usuário" style="text;strokeColor=none;fillColor=none;align=left;verticalAlign=top;spacingLeft=4;spacingRight=4;overflow=hidden;rotatable=0;points=[[0,0.5],[1,0.5]];portConstraint=eastwest;whiteSpace=wrap;html=1;" vertex="1" parent="vjCn4-SrqpU4wcJ7OJ6y-32">
          <mxGeometry y="26" width="250" height="26" as="geometry" />
        </mxCell>
        <mxCell id="vjCn4-SrqpU4wcJ7OJ6y-41" value="DataRegistro:Date" style="text;strokeColor=none;fillColor=none;align=left;verticalAlign=top;spacingLeft=4;spacingRight=4;overflow=hidden;rotatable=0;points=[[0,0.5],[1,0.5]];portConstraint=eastwest;whiteSpace=wrap;html=1;" vertex="1" parent="vjCn4-SrqpU4wcJ7OJ6y-32">
          <mxGeometry y="52" width="250" height="22" as="geometry" />
        </mxCell>
        <mxCell id="vjCn4-SrqpU4wcJ7OJ6y-60" value="Hora:TimeStemp" style="text;strokeColor=none;fillColor=none;align=left;verticalAlign=top;spacingLeft=4;spacingRight=4;overflow=hidden;rotatable=0;points=[[0,0.5],[1,0.5]];portConstraint=eastwest;whiteSpace=wrap;html=1;" vertex="1" parent="vjCn4-SrqpU4wcJ7OJ6y-32">
          <mxGeometry y="74" width="250" height="22" as="geometry" />
        </mxCell>
        <mxCell id="vjCn4-SrqpU4wcJ7OJ6y-61" value="Autorizado:Boolean" style="text;strokeColor=none;fillColor=none;align=left;verticalAlign=top;spacingLeft=4;spacingRight=4;overflow=hidden;rotatable=0;points=[[0,0.5],[1,0.5]];portConstraint=eastwest;whiteSpace=wrap;html=1;" vertex="1" parent="vjCn4-SrqpU4wcJ7OJ6y-32">
          <mxGeometry y="96" width="250" height="22" as="geometry" />
        </mxCell>
        <mxCell id="vjCn4-SrqpU4wcJ7OJ6y-35" value="Valor:Double" style="text;strokeColor=none;fillColor=none;align=left;verticalAlign=top;spacingLeft=4;spacingRight=4;overflow=hidden;rotatable=0;points=[[0,0.5],[1,0.5]];portConstraint=eastwest;whiteSpace=wrap;html=1;" vertex="1" parent="vjCn4-SrqpU4wcJ7OJ6y-32">
          <mxGeometry y="118" width="250" height="22" as="geometry" />
        </mxCell>
        <mxCell id="vjCn4-SrqpU4wcJ7OJ6y-63" value="Notificação:Notificação&lt;br&gt;" style="text;strokeColor=none;fillColor=none;align=left;verticalAlign=top;spacingLeft=4;spacingRight=4;overflow=hidden;rotatable=0;points=[[0,0.5],[1,0.5]];portConstraint=eastwest;whiteSpace=wrap;html=1;" vertex="1" parent="vjCn4-SrqpU4wcJ7OJ6y-32">
          <mxGeometry y="140" width="250" height="22" as="geometry" />
        </mxCell>
        <mxCell id="vjCn4-SrqpU4wcJ7OJ6y-51" value="" style="line;strokeWidth=1;fillColor=none;align=left;verticalAlign=middle;spacingTop=-1;spacingLeft=3;spacingRight=3;rotatable=0;labelPosition=right;points=[];portConstraint=eastwest;strokeColor=inherit;" vertex="1" parent="vjCn4-SrqpU4wcJ7OJ6y-32">
          <mxGeometry y="162" width="250" height="8" as="geometry" />
        </mxCell>
        <mxCell id="vjCn4-SrqpU4wcJ7OJ6y-52" value="+ Registrar(Usuário): Boolen" style="text;strokeColor=none;fillColor=none;align=left;verticalAlign=top;spacingLeft=4;spacingRight=4;overflow=hidden;rotatable=0;points=[[0,0.5],[1,0.5]];portConstraint=eastwest;whiteSpace=wrap;html=1;" vertex="1" parent="vjCn4-SrqpU4wcJ7OJ6y-32">
          <mxGeometry y="170" width="250" height="26" as="geometry" />
        </mxCell>
        <mxCell id="vjCn4-SrqpU4wcJ7OJ6y-145" value="- VerificarTempo(Usuário): Boolen" style="text;strokeColor=none;fillColor=none;align=left;verticalAlign=top;spacingLeft=4;spacingRight=4;overflow=hidden;rotatable=0;points=[[0,0.5],[1,0.5]];portConstraint=eastwest;whiteSpace=wrap;html=1;" vertex="1" parent="vjCn4-SrqpU4wcJ7OJ6y-32">
          <mxGeometry y="196" width="250" height="26" as="geometry" />
        </mxCell>
        <mxCell id="vjCn4-SrqpU4wcJ7OJ6y-115" style="edgeStyle=orthogonalEdgeStyle;rounded=0;orthogonalLoop=1;jettySize=auto;html=1;" edge="1" parent="1" source="vjCn4-SrqpU4wcJ7OJ6y-71" target="vjCn4-SrqpU4wcJ7OJ6y-110">
          <mxGeometry relative="1" as="geometry" />
        </mxCell>
        <mxCell id="vjCn4-SrqpU4wcJ7OJ6y-71" value="Musica" style="swimlane;fontStyle=1;align=center;verticalAlign=top;childLayout=stackLayout;horizontal=1;startSize=26;horizontalStack=0;resizeParent=1;resizeParentMax=0;resizeLast=0;collapsible=1;marginBottom=0;whiteSpace=wrap;html=1;" vertex="1" parent="1">
          <mxGeometry x="760" y="460" width="210" height="242" as="geometry" />
        </mxCell>
        <mxCell id="vjCn4-SrqpU4wcJ7OJ6y-75" value="Nome:string" style="text;strokeColor=none;fillColor=none;align=left;verticalAlign=top;spacingLeft=4;spacingRight=4;overflow=hidden;rotatable=0;points=[[0,0.5],[1,0.5]];portConstraint=eastwest;whiteSpace=wrap;html=1;" vertex="1" parent="vjCn4-SrqpU4wcJ7OJ6y-71">
          <mxGeometry y="26" width="210" height="26" as="geometry" />
        </mxCell>
        <mxCell id="vjCn4-SrqpU4wcJ7OJ6y-83" value="Faixa:Blob" style="text;strokeColor=none;fillColor=none;align=left;verticalAlign=top;spacingLeft=4;spacingRight=4;overflow=hidden;rotatable=0;points=[[0,0.5],[1,0.5]];portConstraint=eastwest;whiteSpace=wrap;html=1;" vertex="1" parent="vjCn4-SrqpU4wcJ7OJ6y-71">
          <mxGeometry y="52" width="210" height="26" as="geometry" />
        </mxCell>
        <mxCell id="vjCn4-SrqpU4wcJ7OJ6y-82" value="Estilo Musical: EstiloMusical" style="text;strokeColor=none;fillColor=none;align=left;verticalAlign=top;spacingLeft=4;spacingRight=4;overflow=hidden;rotatable=0;points=[[0,0.5],[1,0.5]];portConstraint=eastwest;whiteSpace=wrap;html=1;" vertex="1" parent="vjCn4-SrqpU4wcJ7OJ6y-71">
          <mxGeometry y="78" width="210" height="26" as="geometry" />
        </mxCell>
        <mxCell id="vjCn4-SrqpU4wcJ7OJ6y-85" value="Letra:string" style="text;strokeColor=none;fillColor=none;align=left;verticalAlign=top;spacingLeft=4;spacingRight=4;overflow=hidden;rotatable=0;points=[[0,0.5],[1,0.5]];portConstraint=eastwest;whiteSpace=wrap;html=1;" vertex="1" parent="vjCn4-SrqpU4wcJ7OJ6y-71">
          <mxGeometry y="104" width="210" height="26" as="geometry" />
        </mxCell>
        <mxCell id="vjCn4-SrqpU4wcJ7OJ6y-76" value="Autores:List&amp;lt;Autor&amp;gt;" style="text;strokeColor=none;fillColor=none;align=left;verticalAlign=top;spacingLeft=4;spacingRight=4;overflow=hidden;rotatable=0;points=[[0,0.5],[1,0.5]];portConstraint=eastwest;whiteSpace=wrap;html=1;" vertex="1" parent="vjCn4-SrqpU4wcJ7OJ6y-71">
          <mxGeometry y="130" width="210" height="26" as="geometry" />
        </mxCell>
        <mxCell id="vjCn4-SrqpU4wcJ7OJ6y-92" value="Interpretes:List&amp;lt;Interprete&amp;gt;" style="text;strokeColor=none;fillColor=none;align=left;verticalAlign=top;spacingLeft=4;spacingRight=4;overflow=hidden;rotatable=0;points=[[0,0.5],[1,0.5]];portConstraint=eastwest;whiteSpace=wrap;html=1;" vertex="1" parent="vjCn4-SrqpU4wcJ7OJ6y-71">
          <mxGeometry y="156" width="210" height="26" as="geometry" />
        </mxCell>
        <mxCell id="vjCn4-SrqpU4wcJ7OJ6y-132" value="Status:TipoStatus" style="text;strokeColor=none;fillColor=none;align=left;verticalAlign=top;spacingLeft=4;spacingRight=4;overflow=hidden;rotatable=0;points=[[0,0.5],[1,0.5]];portConstraint=eastwest;whiteSpace=wrap;html=1;" vertex="1" parent="vjCn4-SrqpU4wcJ7OJ6y-71">
          <mxGeometry y="182" width="210" height="26" as="geometry" />
        </mxCell>
        <mxCell id="vjCn4-SrqpU4wcJ7OJ6y-73" value="" style="line;strokeWidth=1;fillColor=none;align=left;verticalAlign=middle;spacingTop=-1;spacingLeft=3;spacingRight=3;rotatable=0;labelPosition=right;points=[];portConstraint=eastwest;strokeColor=inherit;" vertex="1" parent="vjCn4-SrqpU4wcJ7OJ6y-71">
          <mxGeometry y="208" width="210" height="8" as="geometry" />
        </mxCell>
        <mxCell id="vjCn4-SrqpU4wcJ7OJ6y-74" value="+ method(type): type" style="text;strokeColor=none;fillColor=none;align=left;verticalAlign=top;spacingLeft=4;spacingRight=4;overflow=hidden;rotatable=0;points=[[0,0.5],[1,0.5]];portConstraint=eastwest;whiteSpace=wrap;html=1;" vertex="1" parent="vjCn4-SrqpU4wcJ7OJ6y-71">
          <mxGeometry y="216" width="210" height="26" as="geometry" />
        </mxCell>
        <mxCell id="vjCn4-SrqpU4wcJ7OJ6y-94" style="edgeStyle=orthogonalEdgeStyle;rounded=0;orthogonalLoop=1;jettySize=auto;html=1;" edge="1" parent="1" source="vjCn4-SrqpU4wcJ7OJ6y-77" target="vjCn4-SrqpU4wcJ7OJ6y-76">
          <mxGeometry relative="1" as="geometry" />
        </mxCell>
        <mxCell id="vjCn4-SrqpU4wcJ7OJ6y-77" value="Autor" style="swimlane;fontStyle=0;childLayout=stackLayout;horizontal=1;startSize=26;fillColor=none;horizontalStack=0;resizeParent=1;resizeParentMax=0;resizeLast=0;collapsible=1;marginBottom=0;whiteSpace=wrap;html=1;" vertex="1" parent="1">
          <mxGeometry x="1130" y="564" width="140" height="104" as="geometry" />
        </mxCell>
        <mxCell id="vjCn4-SrqpU4wcJ7OJ6y-78" value="Nome:string" style="text;strokeColor=none;fillColor=none;align=left;verticalAlign=top;spacingLeft=4;spacingRight=4;overflow=hidden;rotatable=0;points=[[0,0.5],[1,0.5]];portConstraint=eastwest;whiteSpace=wrap;html=1;" vertex="1" parent="vjCn4-SrqpU4wcJ7OJ6y-77">
          <mxGeometry y="26" width="140" height="26" as="geometry" />
        </mxCell>
        <mxCell id="vjCn4-SrqpU4wcJ7OJ6y-133" value="Status:TipoStatus" style="text;strokeColor=none;fillColor=none;align=left;verticalAlign=top;spacingLeft=4;spacingRight=4;overflow=hidden;rotatable=0;points=[[0,0.5],[1,0.5]];portConstraint=eastwest;whiteSpace=wrap;html=1;" vertex="1" parent="vjCn4-SrqpU4wcJ7OJ6y-77">
          <mxGeometry y="52" width="140" height="26" as="geometry" />
        </mxCell>
        <mxCell id="vjCn4-SrqpU4wcJ7OJ6y-79" value="IPN:string" style="text;strokeColor=none;fillColor=none;align=left;verticalAlign=top;spacingLeft=4;spacingRight=4;overflow=hidden;rotatable=0;points=[[0,0.5],[1,0.5]];portConstraint=eastwest;whiteSpace=wrap;html=1;" vertex="1" parent="vjCn4-SrqpU4wcJ7OJ6y-77">
          <mxGeometry y="78" width="140" height="26" as="geometry" />
        </mxCell>
        <mxCell id="vjCn4-SrqpU4wcJ7OJ6y-96" style="edgeStyle=orthogonalEdgeStyle;rounded=0;orthogonalLoop=1;jettySize=auto;html=1;entryX=1;entryY=0.5;entryDx=0;entryDy=0;" edge="1" parent="1" source="vjCn4-SrqpU4wcJ7OJ6y-86" target="vjCn4-SrqpU4wcJ7OJ6y-82">
          <mxGeometry relative="1" as="geometry" />
        </mxCell>
        <mxCell id="vjCn4-SrqpU4wcJ7OJ6y-86" value="Estilo Musical" style="swimlane;fontStyle=0;childLayout=stackLayout;horizontal=1;startSize=26;fillColor=none;horizontalStack=0;resizeParent=1;resizeParentMax=0;resizeLast=0;collapsible=1;marginBottom=0;whiteSpace=wrap;html=1;" vertex="1" parent="1">
          <mxGeometry x="1130" y="486" width="140" height="78" as="geometry" />
        </mxCell>
        <mxCell id="vjCn4-SrqpU4wcJ7OJ6y-87" value="Nome:string" style="text;strokeColor=none;fillColor=none;align=left;verticalAlign=top;spacingLeft=4;spacingRight=4;overflow=hidden;rotatable=0;points=[[0,0.5],[1,0.5]];portConstraint=eastwest;whiteSpace=wrap;html=1;" vertex="1" parent="vjCn4-SrqpU4wcJ7OJ6y-86">
          <mxGeometry y="26" width="140" height="26" as="geometry" />
        </mxCell>
        <mxCell id="vjCn4-SrqpU4wcJ7OJ6y-134" value="Status:TipoStatus" style="text;strokeColor=none;fillColor=none;align=left;verticalAlign=top;spacingLeft=4;spacingRight=4;overflow=hidden;rotatable=0;points=[[0,0.5],[1,0.5]];portConstraint=eastwest;whiteSpace=wrap;html=1;" vertex="1" parent="vjCn4-SrqpU4wcJ7OJ6y-86">
          <mxGeometry y="52" width="140" height="26" as="geometry" />
        </mxCell>
        <mxCell id="vjCn4-SrqpU4wcJ7OJ6y-93" style="edgeStyle=orthogonalEdgeStyle;rounded=0;orthogonalLoop=1;jettySize=auto;html=1;entryX=1;entryY=0.5;entryDx=0;entryDy=0;" edge="1" parent="1" source="vjCn4-SrqpU4wcJ7OJ6y-89" target="vjCn4-SrqpU4wcJ7OJ6y-92">
          <mxGeometry relative="1" as="geometry">
            <Array as="points">
              <mxPoint x="1050" y="720" />
              <mxPoint x="1050" y="629" />
            </Array>
          </mxGeometry>
        </mxCell>
        <mxCell id="vjCn4-SrqpU4wcJ7OJ6y-89" value="Interprete" style="swimlane;fontStyle=0;childLayout=stackLayout;horizontal=1;startSize=26;fillColor=none;horizontalStack=0;resizeParent=1;resizeParentMax=0;resizeLast=0;collapsible=1;marginBottom=0;whiteSpace=wrap;html=1;" vertex="1" parent="1">
          <mxGeometry x="1130" y="668" width="140" height="104" as="geometry" />
        </mxCell>
        <mxCell id="vjCn4-SrqpU4wcJ7OJ6y-131" value="Status:TipoStatus" style="text;strokeColor=none;fillColor=none;align=left;verticalAlign=top;spacingLeft=4;spacingRight=4;overflow=hidden;rotatable=0;points=[[0,0.5],[1,0.5]];portConstraint=eastwest;whiteSpace=wrap;html=1;" vertex="1" parent="vjCn4-SrqpU4wcJ7OJ6y-89">
          <mxGeometry y="26" width="140" height="26" as="geometry" />
        </mxCell>
        <mxCell id="vjCn4-SrqpU4wcJ7OJ6y-90" value="Nome:string" style="text;strokeColor=none;fillColor=none;align=left;verticalAlign=top;spacingLeft=4;spacingRight=4;overflow=hidden;rotatable=0;points=[[0,0.5],[1,0.5]];portConstraint=eastwest;whiteSpace=wrap;html=1;" vertex="1" parent="vjCn4-SrqpU4wcJ7OJ6y-89">
          <mxGeometry y="52" width="140" height="26" as="geometry" />
        </mxCell>
        <mxCell id="vjCn4-SrqpU4wcJ7OJ6y-91" value="IPN:string" style="text;strokeColor=none;fillColor=none;align=left;verticalAlign=top;spacingLeft=4;spacingRight=4;overflow=hidden;rotatable=0;points=[[0,0.5],[1,0.5]];portConstraint=eastwest;whiteSpace=wrap;html=1;" vertex="1" parent="vjCn4-SrqpU4wcJ7OJ6y-89">
          <mxGeometry y="78" width="140" height="26" as="geometry" />
        </mxCell>
        <mxCell id="vjCn4-SrqpU4wcJ7OJ6y-107" style="edgeStyle=orthogonalEdgeStyle;rounded=0;orthogonalLoop=1;jettySize=auto;html=1;" edge="1" parent="1" source="vjCn4-SrqpU4wcJ7OJ6y-97" target="vjCn4-SrqpU4wcJ7OJ6y-21">
          <mxGeometry relative="1" as="geometry" />
        </mxCell>
        <mxCell id="vjCn4-SrqpU4wcJ7OJ6y-97" value="Plano" style="swimlane;fontStyle=0;childLayout=stackLayout;horizontal=1;startSize=26;fillColor=none;horizontalStack=0;resizeParent=1;resizeParentMax=0;resizeLast=0;collapsible=1;marginBottom=0;whiteSpace=wrap;html=1;" vertex="1" parent="1">
          <mxGeometry x="-160" y="606" width="140" height="130" as="geometry" />
        </mxCell>
        <mxCell id="vjCn4-SrqpU4wcJ7OJ6y-98" value="Nome:string" style="text;strokeColor=none;fillColor=none;align=left;verticalAlign=top;spacingLeft=4;spacingRight=4;overflow=hidden;rotatable=0;points=[[0,0.5],[1,0.5]];portConstraint=eastwest;whiteSpace=wrap;html=1;" vertex="1" parent="vjCn4-SrqpU4wcJ7OJ6y-97">
          <mxGeometry y="26" width="140" height="26" as="geometry" />
        </mxCell>
        <mxCell id="vjCn4-SrqpU4wcJ7OJ6y-99" value="Valor:Double" style="text;strokeColor=none;fillColor=none;align=left;verticalAlign=top;spacingLeft=4;spacingRight=4;overflow=hidden;rotatable=0;points=[[0,0.5],[1,0.5]];portConstraint=eastwest;whiteSpace=wrap;html=1;" vertex="1" parent="vjCn4-SrqpU4wcJ7OJ6y-97">
          <mxGeometry y="52" width="140" height="26" as="geometry" />
        </mxCell>
        <mxCell id="vjCn4-SrqpU4wcJ7OJ6y-100" value="Vigencia:Periodo" style="text;strokeColor=none;fillColor=none;align=left;verticalAlign=top;spacingLeft=4;spacingRight=4;overflow=hidden;rotatable=0;points=[[0,0.5],[1,0.5]];portConstraint=eastwest;whiteSpace=wrap;html=1;" vertex="1" parent="vjCn4-SrqpU4wcJ7OJ6y-97">
          <mxGeometry y="78" width="140" height="26" as="geometry" />
        </mxCell>
        <mxCell id="vjCn4-SrqpU4wcJ7OJ6y-146" value="Status:TipoStatus" style="text;strokeColor=none;fillColor=none;align=left;verticalAlign=top;spacingLeft=4;spacingRight=4;overflow=hidden;rotatable=0;points=[[0,0.5],[1,0.5]];portConstraint=eastwest;whiteSpace=wrap;html=1;" vertex="1" parent="vjCn4-SrqpU4wcJ7OJ6y-97">
          <mxGeometry y="104" width="140" height="26" as="geometry" />
        </mxCell>
        <mxCell id="vjCn4-SrqpU4wcJ7OJ6y-105" style="edgeStyle=orthogonalEdgeStyle;rounded=0;orthogonalLoop=1;jettySize=auto;html=1;" edge="1" parent="1" source="vjCn4-SrqpU4wcJ7OJ6y-101" target="vjCn4-SrqpU4wcJ7OJ6y-100">
          <mxGeometry relative="1" as="geometry" />
        </mxCell>
        <mxCell id="vjCn4-SrqpU4wcJ7OJ6y-101" value="Periodo" style="swimlane;fontStyle=0;childLayout=stackLayout;horizontal=1;startSize=26;fillColor=none;horizontalStack=0;resizeParent=1;resizeParentMax=0;resizeLast=0;collapsible=1;marginBottom=0;whiteSpace=wrap;html=1;" vertex="1" parent="1">
          <mxGeometry x="20" y="780" width="140" height="76" as="geometry" />
        </mxCell>
        <mxCell id="vjCn4-SrqpU4wcJ7OJ6y-102" value="De: Data" style="text;strokeColor=none;fillColor=none;align=left;verticalAlign=top;spacingLeft=4;spacingRight=4;overflow=hidden;rotatable=0;points=[[0,0.5],[1,0.5]];portConstraint=eastwest;whiteSpace=wrap;html=1;" vertex="1" parent="vjCn4-SrqpU4wcJ7OJ6y-101">
          <mxGeometry y="26" width="140" height="24" as="geometry" />
        </mxCell>
        <mxCell id="vjCn4-SrqpU4wcJ7OJ6y-103" value="Até: Data" style="text;strokeColor=none;fillColor=none;align=left;verticalAlign=top;spacingLeft=4;spacingRight=4;overflow=hidden;rotatable=0;points=[[0,0.5],[1,0.5]];portConstraint=eastwest;whiteSpace=wrap;html=1;" vertex="1" parent="vjCn4-SrqpU4wcJ7OJ6y-101">
          <mxGeometry y="50" width="140" height="26" as="geometry" />
        </mxCell>
        <mxCell id="vjCn4-SrqpU4wcJ7OJ6y-121" style="edgeStyle=orthogonalEdgeStyle;rounded=0;orthogonalLoop=1;jettySize=auto;html=1;" edge="1" parent="1" source="vjCn4-SrqpU4wcJ7OJ6y-108" target="vjCn4-SrqpU4wcJ7OJ6y-116">
          <mxGeometry relative="1" as="geometry" />
        </mxCell>
        <mxCell id="vjCn4-SrqpU4wcJ7OJ6y-108" value="PlayList" style="swimlane;fontStyle=0;childLayout=stackLayout;horizontal=1;startSize=26;fillColor=none;horizontalStack=0;resizeParent=1;resizeParentMax=0;resizeLast=0;collapsible=1;marginBottom=0;whiteSpace=wrap;html=1;" vertex="1" parent="1">
          <mxGeometry x="290" y="840" width="280" height="216" as="geometry" />
        </mxCell>
        <mxCell id="vjCn4-SrqpU4wcJ7OJ6y-109" value="Nome:string" style="text;strokeColor=none;fillColor=none;align=left;verticalAlign=top;spacingLeft=4;spacingRight=4;overflow=hidden;rotatable=0;points=[[0,0.5],[1,0.5]];portConstraint=eastwest;whiteSpace=wrap;html=1;" vertex="1" parent="vjCn4-SrqpU4wcJ7OJ6y-108">
          <mxGeometry y="26" width="280" height="26" as="geometry" />
        </mxCell>
        <mxCell id="vjCn4-SrqpU4wcJ7OJ6y-112" value="Autor?: Usuário" style="text;strokeColor=none;fillColor=none;align=left;verticalAlign=top;spacingLeft=4;spacingRight=4;overflow=hidden;rotatable=0;points=[[0,0.5],[1,0.5]];portConstraint=eastwest;whiteSpace=wrap;html=1;" vertex="1" parent="vjCn4-SrqpU4wcJ7OJ6y-108">
          <mxGeometry y="52" width="280" height="26" as="geometry" />
        </mxCell>
        <mxCell id="vjCn4-SrqpU4wcJ7OJ6y-110" value="Musicas: List&amp;lt;Musicas&amp;gt;" style="text;strokeColor=none;fillColor=none;align=left;verticalAlign=top;spacingLeft=4;spacingRight=4;overflow=hidden;rotatable=0;points=[[0,0.5],[1,0.5]];portConstraint=eastwest;whiteSpace=wrap;html=1;" vertex="1" parent="vjCn4-SrqpU4wcJ7OJ6y-108">
          <mxGeometry y="78" width="280" height="26" as="geometry" />
        </mxCell>
        <mxCell id="vjCn4-SrqpU4wcJ7OJ6y-128" value="Status:TipoStatus" style="text;strokeColor=none;fillColor=none;align=left;verticalAlign=top;spacingLeft=4;spacingRight=4;overflow=hidden;rotatable=0;points=[[0,0.5],[1,0.5]];portConstraint=eastwest;whiteSpace=wrap;html=1;" vertex="1" parent="vjCn4-SrqpU4wcJ7OJ6y-108">
          <mxGeometry y="104" width="280" height="26" as="geometry" />
        </mxCell>
        <mxCell id="vjCn4-SrqpU4wcJ7OJ6y-111" value="Tipo: TipoPlayList" style="text;strokeColor=none;fillColor=none;align=left;verticalAlign=top;spacingLeft=4;spacingRight=4;overflow=hidden;rotatable=0;points=[[0,0.5],[1,0.5]];portConstraint=eastwest;whiteSpace=wrap;html=1;" vertex="1" parent="vjCn4-SrqpU4wcJ7OJ6y-108">
          <mxGeometry y="130" width="280" height="26" as="geometry" />
        </mxCell>
        <mxCell id="vjCn4-SrqpU4wcJ7OJ6y-124" value="" style="line;strokeWidth=1;fillColor=none;align=left;verticalAlign=middle;spacingTop=-1;spacingLeft=3;spacingRight=3;rotatable=0;labelPosition=right;points=[];portConstraint=eastwest;strokeColor=inherit;" vertex="1" parent="vjCn4-SrqpU4wcJ7OJ6y-108">
          <mxGeometry y="156" width="280" height="8" as="geometry" />
        </mxCell>
        <mxCell id="vjCn4-SrqpU4wcJ7OJ6y-148" value="+AdicionarMusica(Musica):Void" style="text;strokeColor=none;fillColor=none;align=left;verticalAlign=top;spacingLeft=4;spacingRight=4;overflow=hidden;rotatable=0;points=[[0,0.5],[1,0.5]];portConstraint=eastwest;whiteSpace=wrap;html=1;" vertex="1" parent="vjCn4-SrqpU4wcJ7OJ6y-108">
          <mxGeometry y="164" width="280" height="26" as="geometry" />
        </mxCell>
        <mxCell id="vjCn4-SrqpU4wcJ7OJ6y-122" value="+Remover(Musica):Void" style="text;strokeColor=none;fillColor=none;align=left;verticalAlign=top;spacingLeft=4;spacingRight=4;overflow=hidden;rotatable=0;points=[[0,0.5],[1,0.5]];portConstraint=eastwest;whiteSpace=wrap;html=1;" vertex="1" parent="vjCn4-SrqpU4wcJ7OJ6y-108">
          <mxGeometry y="190" width="280" height="26" as="geometry" />
        </mxCell>
        <mxCell id="vjCn4-SrqpU4wcJ7OJ6y-116" value="PlayListDoUsuário" style="swimlane;fontStyle=0;childLayout=stackLayout;horizontal=1;startSize=26;fillColor=none;horizontalStack=0;resizeParent=1;resizeParentMax=0;resizeLast=0;collapsible=1;marginBottom=0;whiteSpace=wrap;html=1;" vertex="1" parent="1">
          <mxGeometry x="295" y="606" width="270" height="78" as="geometry" />
        </mxCell>
        <mxCell id="vjCn4-SrqpU4wcJ7OJ6y-117" value="Usuário:Usuário" style="text;strokeColor=none;fillColor=none;align=left;verticalAlign=top;spacingLeft=4;spacingRight=4;overflow=hidden;rotatable=0;points=[[0,0.5],[1,0.5]];portConstraint=eastwest;whiteSpace=wrap;html=1;" vertex="1" parent="vjCn4-SrqpU4wcJ7OJ6y-116">
          <mxGeometry y="26" width="270" height="26" as="geometry" />
        </mxCell>
        <mxCell id="vjCn4-SrqpU4wcJ7OJ6y-118" value="PlayList:PlayList" style="text;strokeColor=none;fillColor=none;align=left;verticalAlign=top;spacingLeft=4;spacingRight=4;overflow=hidden;rotatable=0;points=[[0,0.5],[1,0.5]];portConstraint=eastwest;whiteSpace=wrap;html=1;" vertex="1" parent="vjCn4-SrqpU4wcJ7OJ6y-116">
          <mxGeometry y="52" width="270" height="26" as="geometry" />
        </mxCell>
        <mxCell id="vjCn4-SrqpU4wcJ7OJ6y-127" style="edgeStyle=orthogonalEdgeStyle;rounded=0;orthogonalLoop=1;jettySize=auto;html=1;" edge="1" parent="1" source="vjCn4-SrqpU4wcJ7OJ6y-126" target="vjCn4-SrqpU4wcJ7OJ6y-111">
          <mxGeometry relative="1" as="geometry" />
        </mxCell>
        <mxCell id="vjCn4-SrqpU4wcJ7OJ6y-126" value="&lt;p style=&quot;margin:0px;margin-top:4px;text-align:center;text-decoration:underline;&quot;&gt;&lt;b&gt;TipoPlayList&lt;/b&gt;&lt;/p&gt;&lt;hr&gt;&lt;p style=&quot;margin:0px;margin-left:8px;&quot;&gt;Favorita = 0&lt;br&gt;Padrão = 1&lt;br&gt;Autoral = 2&lt;/p&gt;" style="verticalAlign=top;align=left;overflow=fill;fontSize=12;fontFamily=Helvetica;html=1;whiteSpace=wrap;" vertex="1" parent="1">
          <mxGeometry x="760" y="1060" width="160" height="90" as="geometry" />
        </mxCell>
        <mxCell id="vjCn4-SrqpU4wcJ7OJ6y-130" style="edgeStyle=orthogonalEdgeStyle;rounded=0;orthogonalLoop=1;jettySize=auto;html=1;" edge="1" parent="1" source="vjCn4-SrqpU4wcJ7OJ6y-129" target="vjCn4-SrqpU4wcJ7OJ6y-128">
          <mxGeometry relative="1" as="geometry" />
        </mxCell>
        <mxCell id="vjCn4-SrqpU4wcJ7OJ6y-135" style="edgeStyle=orthogonalEdgeStyle;rounded=0;orthogonalLoop=1;jettySize=auto;html=1;" edge="1" parent="1" source="vjCn4-SrqpU4wcJ7OJ6y-129" target="vjCn4-SrqpU4wcJ7OJ6y-132">
          <mxGeometry relative="1" as="geometry">
            <Array as="points">
              <mxPoint x="1200" y="880" />
              <mxPoint x="1020" y="880" />
              <mxPoint x="1020" y="655" />
            </Array>
          </mxGeometry>
        </mxCell>
        <mxCell id="vjCn4-SrqpU4wcJ7OJ6y-136" style="edgeStyle=orthogonalEdgeStyle;rounded=0;orthogonalLoop=1;jettySize=auto;html=1;" edge="1" parent="1" source="vjCn4-SrqpU4wcJ7OJ6y-129" target="vjCn4-SrqpU4wcJ7OJ6y-134">
          <mxGeometry relative="1" as="geometry">
            <Array as="points">
              <mxPoint x="1360" y="980" />
              <mxPoint x="1360" y="551" />
            </Array>
          </mxGeometry>
        </mxCell>
        <mxCell id="vjCn4-SrqpU4wcJ7OJ6y-137" style="edgeStyle=orthogonalEdgeStyle;rounded=0;orthogonalLoop=1;jettySize=auto;html=1;" edge="1" parent="1" source="vjCn4-SrqpU4wcJ7OJ6y-129" target="vjCn4-SrqpU4wcJ7OJ6y-133">
          <mxGeometry relative="1" as="geometry">
            <Array as="points">
              <mxPoint x="1320" y="970" />
              <mxPoint x="1320" y="629" />
            </Array>
          </mxGeometry>
        </mxCell>
        <mxCell id="vjCn4-SrqpU4wcJ7OJ6y-138" style="edgeStyle=orthogonalEdgeStyle;rounded=0;orthogonalLoop=1;jettySize=auto;html=1;entryX=1;entryY=0.5;entryDx=0;entryDy=0;" edge="1" parent="1" source="vjCn4-SrqpU4wcJ7OJ6y-129" target="vjCn4-SrqpU4wcJ7OJ6y-131">
          <mxGeometry relative="1" as="geometry">
            <Array as="points">
              <mxPoint x="1290" y="957" />
              <mxPoint x="1290" y="707" />
            </Array>
          </mxGeometry>
        </mxCell>
        <mxCell id="vjCn4-SrqpU4wcJ7OJ6y-147" style="edgeStyle=orthogonalEdgeStyle;rounded=0;orthogonalLoop=1;jettySize=auto;html=1;" edge="1" parent="1" source="vjCn4-SrqpU4wcJ7OJ6y-129" target="vjCn4-SrqpU4wcJ7OJ6y-146">
          <mxGeometry relative="1" as="geometry">
            <Array as="points">
              <mxPoint x="1200" y="1180" />
              <mxPoint x="-90" y="1180" />
            </Array>
          </mxGeometry>
        </mxCell>
        <mxCell id="vjCn4-SrqpU4wcJ7OJ6y-129" value="&lt;p style=&quot;margin:0px;margin-top:4px;text-align:center;text-decoration:underline;&quot;&gt;&lt;b&gt;TipoStatus&lt;/b&gt;&lt;/p&gt;&lt;hr&gt;&lt;p style=&quot;margin:0px;margin-left:8px;&quot;&gt;Ativo = 0&lt;br&gt;Inativo = 1&lt;br&gt;&lt;/p&gt;" style="verticalAlign=top;align=left;overflow=fill;fontSize=12;fontFamily=Helvetica;html=1;whiteSpace=wrap;" vertex="1" parent="1">
          <mxGeometry x="1130" y="912" width="140" height="90" as="geometry" />
        </mxCell>
        <mxCell id="vjCn4-SrqpU4wcJ7OJ6y-141" style="edgeStyle=orthogonalEdgeStyle;rounded=0;orthogonalLoop=1;jettySize=auto;html=1;" edge="1" parent="1" source="vjCn4-SrqpU4wcJ7OJ6y-46" target="vjCn4-SrqpU4wcJ7OJ6y-63">
          <mxGeometry relative="1" as="geometry" />
        </mxCell>
        <mxCell id="vjCn4-SrqpU4wcJ7OJ6y-46" value="Notificação" style="swimlane;fontStyle=1;align=center;verticalAlign=top;childLayout=stackLayout;horizontal=1;startSize=26;horizontalStack=0;resizeParent=1;resizeParentMax=0;resizeLast=0;collapsible=1;marginBottom=0;whiteSpace=wrap;html=1;" vertex="1" parent="1">
          <mxGeometry x="174" y="-21" width="240" height="164" as="geometry" />
        </mxCell>
        <mxCell id="vjCn4-SrqpU4wcJ7OJ6y-45" value="Data:Data" style="text;strokeColor=none;fillColor=none;align=left;verticalAlign=top;spacingLeft=4;spacingRight=4;overflow=hidden;rotatable=0;points=[[0,0.5],[1,0.5]];portConstraint=eastwest;whiteSpace=wrap;html=1;" vertex="1" parent="vjCn4-SrqpU4wcJ7OJ6y-46">
          <mxGeometry y="26" width="240" height="26" as="geometry" />
        </mxCell>
        <mxCell id="vjCn4-SrqpU4wcJ7OJ6y-44" value="Mensagem: string" style="text;strokeColor=none;fillColor=none;align=left;verticalAlign=top;spacingLeft=4;spacingRight=4;overflow=hidden;rotatable=0;points=[[0,0.5],[1,0.5]];portConstraint=eastwest;whiteSpace=wrap;html=1;" vertex="1" parent="vjCn4-SrqpU4wcJ7OJ6y-46">
          <mxGeometry y="52" width="240" height="26" as="geometry" />
        </mxCell>
        <mxCell id="vjCn4-SrqpU4wcJ7OJ6y-43" value="Usuário: Usuario" style="text;strokeColor=none;fillColor=none;align=left;verticalAlign=top;spacingLeft=4;spacingRight=4;overflow=hidden;rotatable=0;points=[[0,0.5],[1,0.5]];portConstraint=eastwest;whiteSpace=wrap;html=1;" vertex="1" parent="vjCn4-SrqpU4wcJ7OJ6y-46">
          <mxGeometry y="78" width="240" height="26" as="geometry" />
        </mxCell>
        <mxCell id="vjCn4-SrqpU4wcJ7OJ6y-48" value="" style="line;strokeWidth=1;fillColor=none;align=left;verticalAlign=middle;spacingTop=-1;spacingLeft=3;spacingRight=3;rotatable=0;labelPosition=right;points=[];portConstraint=eastwest;strokeColor=inherit;" vertex="1" parent="vjCn4-SrqpU4wcJ7OJ6y-46">
          <mxGeometry y="104" width="240" height="8" as="geometry" />
        </mxCell>
        <mxCell id="vjCn4-SrqpU4wcJ7OJ6y-49" value="+Registrar(Usuario, Mensagem): void" style="text;strokeColor=none;fillColor=none;align=left;verticalAlign=top;spacingLeft=4;spacingRight=4;overflow=hidden;rotatable=0;points=[[0,0.5],[1,0.5]];portConstraint=eastwest;whiteSpace=wrap;html=1;" vertex="1" parent="vjCn4-SrqpU4wcJ7OJ6y-46">
          <mxGeometry y="112" width="240" height="26" as="geometry" />
        </mxCell>
        <mxCell id="vjCn4-SrqpU4wcJ7OJ6y-65" value="+Listar(Usuario):Lista&amp;lt;Notificação&amp;gt;" style="text;strokeColor=none;fillColor=none;align=left;verticalAlign=top;spacingLeft=4;spacingRight=4;overflow=hidden;rotatable=0;points=[[0,0.5],[1,0.5]];portConstraint=eastwest;whiteSpace=wrap;html=1;" vertex="1" parent="vjCn4-SrqpU4wcJ7OJ6y-46">
          <mxGeometry y="138" width="240" height="26" as="geometry" />
        </mxCell>
      </root>
    </mxGraphModel>
  </diagram>
</mxfile>
